# xmcd CD database file generated by Grip 2.95
# 
# Track frame offsets:
#       150
#       14225
#       27707
#       44914
#       60115
#       76695
#       89865
#       102650
#       115935
#       128647
#       143545
# 
# Disc length: 2124 seconds
# 
# Revision: 3
# Processed by: cddbd v1.4b42PL0 Copyright (c) Steve Scherf et al.
# Submitted via: Grip 2.95
# 
DISCID=9a084a0b
DTITLE=The Poverty Plainsmen - There's No Lookin Back
DYEAR=1900
DGENRE=
TTITLE0=Same Things
TTITLE1=All Figured Out
TTITLE2=Eternal Love
TTITLE3=There's No Lookin Back
TTITLE4=Farther to Fall
TTITLE5=Time Will Tell
TTITLE6=Lost In You
TTITLE7=Never Enough
TTITLE8=The Other City
TTITLE9=After the Harvest
TTITLE10=Show Me Somthing
EXTD=
EXTT0=
EXTT1=
EXTT2=
EXTT3=
EXTT4=
EXTT5=
EXTT6=
EXTT7=
EXTT8=
EXTT9=
EXTT10=
PLAYORDER=
